HIERARCHY
ROOT Hips
{
 OFFSET 0.000000 0.000000 0.000000
 CHANNELS 6 Xposition Yposition Zposition Yrotation Xrotation Zrotation
 JOINT Chest
 {
  OFFSET 0.000000 9.581000 -0.001100
  CHANNELS 3 Yrotation Xrotation Zrotation
  JOINT Chest2
  {
   OFFSET 0.000000 9.561100 0.002200
   CHANNELS 3 Yrotation Xrotation Zrotation
   JOINT Chest3
   {
    OFFSET 0.000000 9.521100 0.000000
    CHANNELS 3 Yrotation Xrotation Zrotation
    JOINT Chest4
    {
     OFFSET 0.000000 9.511400 0.000000
     CHANNELS 3 Yrotation Xrotation Zrotation
     JOINT Neck
     {
      OFFSET 0.000000 14.375100 0.000000
      CHANNELS 3 Yrotation Xrotation Zrotation
      JOINT Head
      {
       OFFSET 0.000000 8.901200 0.004600
       CHANNELS 3 Yrotation Xrotation Zrotation
       End Site
       {
        OFFSET 0.000000 16.962200 0.002400
       }
      }
     }
     JOINT RightCollar
     {
      OFFSET -2.920100 9.518800 0.000000
      CHANNELS 3 Yrotation Xrotation Zrotation
      JOINT RightShoulder
      {
       OFFSET -13.664500 0.000000 0.000000
       CHANNELS 3 Yrotation Xrotation Zrotation
       JOINT RightElbow
       {
        OFFSET 0.000000 -29.999200 0.000000
        CHANNELS 3 Yrotation Xrotation Zrotation
        JOINT RightWrist
        {
         OFFSET 0.000000 -24.253600 0.000000
         CHANNELS 3 Yrotation Xrotation Zrotation
         End Site
         {
          OFFSET 0.000000 -17.918900 0.000000
         }
        }
       }
      }
     }
     JOINT LeftCollar
     {
      OFFSET 2.920100 9.518800 0.000000
      CHANNELS 3 Yrotation Xrotation Zrotation
      JOINT LeftShoulder
      {
       OFFSET 13.664500 0.000000 0.000000
       CHANNELS 3 Yrotation Xrotation Zrotation
       JOINT LeftElbow
       {
        OFFSET 0.000000 -29.999200 0.000000
        CHANNELS 3 Yrotation Xrotation Zrotation
        JOINT LeftWrist
        {
         OFFSET 0.000000 -24.253600 0.000000
         CHANNELS 3 Yrotation Xrotation Zrotation
         End Site
         {
          OFFSET 0.000000 -17.918900 0.000000
         }
        }
       }
      }
     }
    }
   }
  }
 }
 JOINT RightHip
 {
  OFFSET -7.797300 0.005300 0.000500
  CHANNELS 3 Yrotation Xrotation Zrotation
  JOINT RightKnee
  {
   OFFSET 0.000000 -40.663400 -0.000500
   CHANNELS 3 Yrotation Xrotation Zrotation
   JOINT RightAnkle
   {
    OFFSET 0.000000 -39.523700 -0.000900
    CHANNELS 3 Yrotation Xrotation Zrotation
    JOINT RightToe
    {
     OFFSET 0.000000 -6.418000 14.485300
     CHANNELS 3 Yrotation Xrotation Zrotation
     End Site
     {
      OFFSET 0.000000 -1.465200 6.326400
     }
    }
   }
  }
 }
 JOINT LeftHip
 {
  OFFSET 7.797300 0.005300 0.000500
  CHANNELS 3 Yrotation Xrotation Zrotation
  JOINT LeftKnee
  {
   OFFSET 0.000000 -40.663400 -0.000500
   CHANNELS 3 Yrotation Xrotation Zrotation
   JOINT LeftAnkle
   {
    OFFSET 0.000000 -39.523700 -0.000900
    CHANNELS 3 Yrotation Xrotation Zrotation
    JOINT LeftToe
    {
     OFFSET 0.000000 -6.418000 14.485300
     CHANNELS 3 Yrotation Xrotation Zrotation
     End Site
     {
      OFFSET 0.000000 -1.465200 6.326400
     }
    }
   }
  }
 }
}
MOTION
Frames: 9
Frame Time: 0.008333
0.000000 86.422400 0.000000 0.000000 -5.767877 0.000000 0.000000 11.653817 0.000000 0.000000 -5.885947 0.000000 0.000000 -0.000000 0.000000 0.000000 -0.000000 0.000000 0.000000 12.528835 0.000000 0.000000 0.711642 0.000000 0.000000 -0.000000 0.000000 0.000000 0.000000 -90.000000 0.000000 -2.309062 0.000000 0.000000 2.309062 0.000000 0.000000 -0.000000 0.000000 0.000000 -0.000000 90.000000 0.000000 -2.309062 0.000000 0.000000 2.309062 0.000000 0.000000 8.520406 0.000000 0.000000 1.905762 0.000000 -0.000000 -4.658285 0.000000 0.000000 -0.000000 0.000000 0.000000 8.520406 0.000000 0.000000 1.905762 0.000000 -0.000000 -4.658285 0.000000 0.000000 -0.000000 0.000000
-13.428081 126.908108 32.342040 -160.011735 -50.738993 -3.687526 -6.045866 28.046877 -1.915054 -1.017526 5.134137 -0.109631 -1.571342 8.156026 -0.249382 -4.731832 22.567462 -1.232449 -4.400631 16.413916 -6.912385 -3.159589 -8.256674 -6.461436 4.656979 0.793853 -0.120979 5.946670 -10.870558 -11.312956 -75.254450 -62.077854 128.875360 15.105280 26.087773 18.281967 -9.827531 -6.306249 -2.536720 -20.697060 -29.437463 13.610896 57.704545 -44.562291 -119.337956 1.924526 -0.931135 -10.876762 -6.708397 -22.203871 -10.840063 -10.337712 78.578739 -11.619785 9.942466 -14.152100 3.919506 -0.000236 -0.002378 -0.000105 4.338106 5.876405 -1.286564 128.904295 64.933265 147.344181 10.564896 11.290602 3.591857 0.001646 0.010242 0.000730
-13.427628 126.907490 32.343796 -160.015629 -50.742230 -3.682795 -6.055840 28.031853 -1.915097 -1.025912 5.107440 -0.102387 -1.579648 8.136926 -0.243919 -4.743703 22.553393 -1.234405 -4.699827 16.501555 -7.018714 -3.464862 -8.149731 -6.517082 4.659439 0.857694 -0.138088 5.901513 -10.945623 -11.280492 -75.208231 -62.113755 128.847384 15.135344 26.082901 18.310613 -9.792154 -6.261774 -2.582421 -20.745452 -29.446764 13.671586 57.743205 -44.538616 -119.349866 1.915935 -0.927479 -10.881257 -6.706529 -22.203278 -10.844111 -10.320030 78.577523 -11.602299 9.939011 -14.144758 3.922184 -0.001403 -0.002379 -0.000622 4.337618 5.877946 -1.296633 128.905332 64.935356 147.340245 10.572954 11.297633 3.602797 -0.000102 0.006501 -0.000045
-13.427294 126.906781 32.345955 -160.015711 -50.746399 -3.679242 -6.090880 27.966617 -1.912332 -1.012443 5.132889 -0.115420 -1.600701 8.067725 -0.223120 -4.747702 22.592852 -1.261815 -5.002754 16.596704 -7.112806 -3.777768 -8.034347 -6.558670 4.599254 0.906678 -0.111873 5.935098 -10.986067 -11.297956 -75.213359 -62.143685 128.859339 15.169673 26.076992 18.341362 -9.752208 -6.241877 -2.615458 -20.792768 -29.436368 13.710944 57.788022 -44.577291 -119.378401 1.898010 -0.923395 -10.902103 -6.707523 -22.202984 -10.852756 -10.319695 78.576873 -11.599872 9.949521 -14.135336 3.920006 -0.000196 -0.002405 -0.000087 4.336925 5.881915 -1.307912 128.898937 64.932734 147.331842 10.565565 11.284561 3.640569 -0.000328 0.001667 -0.000145
-13.426310 126.906723 32.347566 -160.015362 -50.757284 -3.680420 -6.102660 27.952700 -1.912762 -1.015715 5.118072 -0.113294 -1.595916 8.080664 -0.227512 -4.760974 22.557518 -1.255035 -5.304005 16.698631 -7.193500 -4.092663 -7.911326 -6.586040 4.556099 0.964548 -0.103168 5.973087 -11.010898 -11.309530 -75.302837 -62.168278 128.929130 15.183551 26.082912 18.369868 -9.699262 -6.256369 -2.646042 -20.825857 -29.383717 13.706340 57.818051 -44.623934 -119.402968 1.869737 -0.917923 -10.925376 -6.711118 -22.194436 -10.854853 -10.342874 78.571397 -11.623927 9.964131 -14.126008 3.919058 0.000254 -0.003038 0.000112 4.339662 5.886639 -1.315757 128.894374 64.931016 147.332223 10.577124 11.301529 3.627969 -0.001400 0.000583 -0.000620
-13.425037 126.907106 32.348871 -160.031838 -50.773260 -3.670615 -6.094838 27.960311 -1.911606 -1.024504 5.090229 -0.109076 -1.592631 8.092079 -0.230561 -4.775714 22.527897 -1.254411 -5.597201 16.805811 -7.260788 -4.402575 -7.782433 -6.600493 4.528864 1.022132 -0.100356 5.949525 -11.070517 -11.287118 -75.217610 -62.192219 128.890226 15.214479 26.070834 18.372588 -9.671972 -6.222071 -2.672821 -20.848403 -29.380995 13.727050 57.853297 -44.656806 -119.433219 1.859171 -0.915518 -10.931740 -6.704774 -22.181603 -10.853034 -10.371695 78.563687 -11.652715 9.969008 -14.113558 3.918103 0.000066 -0.003044 0.000029 4.349774 5.898212 -1.316067 128.890657 64.935315 147.327734 10.606405 11.339911 3.564045 -0.005223 0.008179 -0.002315
-13.424693 126.907110 32.350804 -160.028983 -50.786597 -3.669082 -6.107250 27.941488 -1.914176 -1.031055 5.091455 -0.113990 -1.599004 8.059362 -0.226495 -4.789080 22.545809 -1.269003 -5.874732 16.915761 -7.315457 -4.698788 -7.650713 -6.604326 4.531585 1.069106 -0.104284 5.899636 -11.115092 -11.256621 -75.162080 -62.217899 128.881207 15.238008 26.065904 18.375959 -9.639841 -6.194839 -2.696628 -20.882901 -29.401132 13.787538 57.893898 -44.651195 -119.469481 1.862608 -0.920512 -10.927535 -6.706013 -22.170592 -10.861437 -10.343894 78.555464 -11.628287 9.984873 -14.098308 3.920885 0.002224 -0.002513 0.000985 4.345467 5.910473 -1.324938 128.880590 64.939496 147.323364 10.587799 11.331899 3.607375 0.000347 -0.001064 0.000154
-13.424142 126.907142 32.352614 -160.022831 -50.800576 -3.671274 -6.125864 27.928288 -1.922413 -1.035727 5.095557 -0.116800 -1.591044 8.063649 -0.227232 -4.806401 22.536235 -1.273199 -6.138360 17.023085 -7.353323 -4.975732 -7.518267 -6.596612 4.532939 1.099570 -0.106315 5.878328 -11.138277 -11.242063 -75.234128 -62.250678 128.948275 15.232480 26.079754 18.403198 -9.599169 -6.192485 -2.741994 -20.911209 -29.373924 13.816654 57.912919 -44.670147 -119.501442 1.856304 -0.921107 -10.926006 -6.710567 -22.159449 -10.865239 -10.339935 78.553507 -11.626242 9.978676 -14.089153 3.923329 0.002212 -0.001608 0.000980 4.340433 5.923231 -1.329655 128.875463 64.938066 147.315863 10.573272 11.315387 3.659663 0.001383 -0.005641 0.000613
-13.423949 126.908026 32.353791 -160.020355 -50.820983 -3.669895 -6.146781 27.927338 -1.935761 -1.035806 5.102660 -0.118970 -1.617860 8.039058 -0.229141 -4.776114 22.565121 -1.282612 -6.393734 17.125748 -7.370385 -5.232730 -7.387848 -6.574968 4.471309 1.139590 -0.101902 5.935702 -11.175340 -11.247187 -75.334251 -62.272567 129.005242 15.233801 26.095054 18.443148 -9.591426 -6.185723 -2.768333 -20.925500 -29.383112 13.856171 57.927517 -44.662152 -119.521952 1.858778 -0.917156 -10.928851 -6.728449 -22.144395 -10.869254 -10.337818 78.550172 -11.633949 9.970015 -14.080203 3.923697 -0.000260 -0.001296 -0.000115 4.339569 5.942859 -1.332384 128.868238 64.938819 147.309289 10.571915 11.318307 3.659003 0.000976 -0.003128 0.000432
